<svg xmlns="http://www.w3.org/2000/svg" viewBox="0 0 32 32" fill="none">
  <defs>
    <linearGradient id="svGrad" x1="0" y1="0" x2="32" y2="32" gradientUnits="userSpaceOnUse">
      <stop offset="0%" stop-color="#8b5cf6"/>
      <stop offset="100%" stop-color="#4f46e5"/>
    </linearGradient>
  </defs>
  <rect width="32" height="32" rx="8" fill="url(#svGrad)"/>
  <path d="M10 11 Q10 9 12 9 L20 9 L20 11 L13 11 Q12 11 12 12 L12 14 Q12 15 13 15 L19 15 Q21 15 21 17 L21 20 Q21 22 19 22 L11 22 L11 20 L18 20 Q19 20 19 19 L19 18 Q19 17 18 17 L12 17 Q10 17 10 15 Z" fill="white" opacity="0.95"/>
</svg>
